<svg width="87" height="28" viewBox="0 0 87 28" fill="none" xmlns="http://www.w3.org/2000/svg">
<path d="M25.1299 17.5H19.8333C19.2144 17.5 18.6209 17.7458 18.1833 18.1834C17.7458 18.621 17.4999 19.2145 17.4999 19.8333V25.13M8.16659 3.89668V5.83334C8.16659 6.7616 8.53533 7.65184 9.19171 8.30822C9.84809 8.96459 10.7383 9.33334 11.6666 9.33334C12.2854 9.33334 12.8789 9.57918 13.3165 10.0168C13.7541 10.4543 13.9999 11.0478 13.9999 11.6667C13.9999 12.95 15.0499 14 16.3333 14C16.9521 14 17.5456 13.7542 17.9832 13.3166C18.4208 12.879 18.6666 12.2855 18.6666 11.6667C18.6666 10.3833 19.7166 9.33334 20.9999 9.33334H24.6983M12.8333 25.6083V21C12.8333 20.3812 12.5874 19.7877 12.1498 19.3501C11.7122 18.9125 11.1188 18.6667 10.4999 18.6667C9.88108 18.6667 9.28759 18.4208 8.85 17.9833C8.41242 17.5457 8.16659 16.9522 8.16659 16.3333V15.1667C8.16659 14.5478 7.92075 13.9543 7.48317 13.5168C7.04558 13.0792 6.45209 12.8333 5.83325 12.8333H2.39159M25.6666 14C25.6666 20.4433 20.4432 25.6667 13.9999 25.6667C7.5566 25.6667 2.33325 20.4433 2.33325 14C2.33325 7.55669 7.5566 2.33334 13.9999 2.33334C20.4432 2.33334 25.6666 7.55669 25.6666 14Z" stroke="#014B44" stroke-width="2" stroke-linecap="round" stroke-linejoin="round"/>
<path d="M39.6911 7.90909V21H37.7799V7.90909H39.6911ZM46.3788 24.8864C45.599 24.8864 44.9278 24.7841 44.3653 24.5795C43.8071 24.375 43.3511 24.1044 42.9974 23.7678C42.6437 23.4311 42.3795 23.0625 42.2048 22.6619L43.8476 21.9844C43.9626 22.1719 44.116 22.37 44.3078 22.5788C44.5038 22.7919 44.768 22.973 45.1004 23.1222C45.4371 23.2713 45.8696 23.3459 46.398 23.3459C47.1224 23.3459 47.7211 23.169 48.1942 22.8153C48.6672 22.4659 48.9037 21.9077 48.9037 21.1406V19.2102H48.7822C48.6672 19.419 48.501 19.6513 48.2836 19.907C48.0706 20.1626 47.7765 20.3842 47.4015 20.5717C47.0265 20.7592 46.5386 20.853 45.9378 20.853C45.1622 20.853 44.4633 20.6719 43.8412 20.3097C43.2233 19.9432 42.7332 19.4041 42.371 18.6925C42.0131 17.9766 41.8341 17.0966 41.8341 16.0526C41.8341 15.0085 42.0109 14.1136 42.3646 13.3679C42.7226 12.6222 43.2126 12.0511 43.8348 11.6548C44.4569 11.2543 45.1622 11.054 45.9506 11.054C46.5599 11.054 47.0521 11.1562 47.4271 11.3608C47.8021 11.5611 48.094 11.7955 48.3028 12.0639C48.5159 12.3324 48.68 12.5689 48.795 12.7734H48.9356V11.1818H50.8085V21.2173C50.8085 22.0611 50.6125 22.7536 50.2204 23.2947C49.8284 23.8359 49.2979 24.2365 48.6288 24.4964C47.964 24.7564 47.214 24.8864 46.3788 24.8864ZM46.3596 19.2678C46.9094 19.2678 47.3738 19.1399 47.7531 18.8842C48.1366 18.6243 48.4264 18.2536 48.6224 17.772C48.8227 17.2862 48.9229 16.7045 48.9229 16.027C48.9229 15.3665 48.8248 14.7848 48.6288 14.282C48.4328 13.7791 48.1452 13.3871 47.7659 13.1058C47.3866 12.8203 46.9179 12.6776 46.3596 12.6776C45.7844 12.6776 45.305 12.8267 44.9214 13.125C44.5379 13.419 44.2481 13.8196 44.0521 14.3267C43.8604 14.8338 43.7645 15.4006 43.7645 16.027C43.7645 16.6705 43.8625 17.2351 44.0585 17.7209C44.2545 18.2067 44.5443 18.5859 44.9278 18.8587C45.3156 19.1314 45.7929 19.2678 46.3596 19.2678ZM60.729 13.5788L58.9967 13.8857C58.9243 13.6641 58.8092 13.4531 58.6515 13.2528C58.4981 13.0526 58.2893 12.8885 58.0251 12.7607C57.7609 12.6328 57.4307 12.5689 57.0344 12.5689C56.4932 12.5689 56.0415 12.6903 55.6792 12.9332C55.317 13.1719 55.1359 13.4808 55.1359 13.8601C55.1359 14.1882 55.2574 14.4524 55.5003 14.6527C55.7432 14.853 56.1352 15.017 56.6764 15.1449L58.2361 15.5028C59.1395 15.7116 59.8128 16.0334 60.2559 16.468C60.6991 16.9027 60.9207 17.4673 60.9207 18.1619C60.9207 18.75 60.7503 19.2741 60.4094 19.7344C60.0727 20.1903 59.6018 20.5483 58.9967 20.8082C58.3959 21.0682 57.6991 21.1982 56.9065 21.1982C55.8071 21.1982 54.9101 20.9638 54.2155 20.495C53.5209 20.022 53.0947 19.3509 52.9371 18.4815L54.7844 18.2003C54.8994 18.6818 55.1359 19.0462 55.4939 19.2933C55.8518 19.5362 56.3184 19.6577 56.8937 19.6577C57.5202 19.6577 58.0209 19.5277 58.3959 19.2678C58.7709 19.0036 58.9584 18.6818 58.9584 18.3026C58.9584 17.9957 58.8433 17.7379 58.6132 17.5291C58.3873 17.3203 58.04 17.1626 57.5713 17.0561L55.9094 16.6918C54.9932 16.483 54.3156 16.1506 53.8767 15.6946C53.442 15.2386 53.2247 14.6612 53.2247 13.9624C53.2247 13.3828 53.3866 12.8757 53.7105 12.4411C54.0344 12.0064 54.4818 11.6676 55.0528 11.4247C55.6238 11.1776 56.278 11.054 57.0152 11.054C58.0763 11.054 58.9115 11.2841 59.5209 11.7443C60.1302 12.2003 60.5329 12.8118 60.729 13.5788ZM67.4134 21H63.1755V7.90909H67.5477C68.8303 7.90909 69.9319 8.17116 70.8524 8.69531C71.7728 9.2152 72.4781 9.96307 72.9681 10.9389C73.4624 11.9105 73.7096 13.076 73.7096 14.4354C73.7096 15.799 73.4603 16.9709 72.9617 17.951C72.4674 18.9311 71.7515 19.6854 70.814 20.2138C69.8765 20.7379 68.743 21 67.4134 21ZM65.1507 19.2741H67.3048C68.3019 19.2741 69.1308 19.0866 69.7913 18.7116C70.4518 18.3324 70.9461 17.7848 71.2742 17.0689C71.6024 16.3487 71.7664 15.4709 71.7664 14.4354C71.7664 13.4084 71.6024 12.5369 71.2742 11.821C70.9504 11.1051 70.4667 10.5618 69.8232 10.1911C69.1798 9.82031 68.3808 9.63494 67.4262 9.63494H65.1507V19.2741ZM76.1657 21V7.90909H80.9598C81.8888 7.90909 82.6579 8.0625 83.2673 8.36932C83.8767 8.67187 84.3327 9.0831 84.6352 9.60298C84.9378 10.1186 85.089 10.7003 85.089 11.348C85.089 11.8935 84.9889 12.3537 84.7886 12.7287C84.5883 13.0994 84.3199 13.3977 83.9832 13.6236C83.6508 13.8452 83.2844 14.0071 82.8838 14.1094V14.2372C83.3184 14.2585 83.7425 14.3991 84.1558 14.6591C84.5734 14.9148 84.9186 15.2791 85.1913 15.7521C85.464 16.2251 85.6004 16.8004 85.6004 17.478C85.6004 18.147 85.4427 18.7479 85.1274 19.2805C84.8163 19.8089 84.3348 20.2287 83.6828 20.5398C83.0308 20.8466 82.1977 21 81.1835 21H76.1657ZM78.1409 19.3061H80.9917C81.9378 19.3061 82.6153 19.1229 83.0244 18.7564C83.4335 18.3899 83.6381 17.9318 83.6381 17.3821C83.6381 16.9687 83.5336 16.5895 83.3248 16.2443C83.116 15.8991 82.8177 15.6243 82.43 15.4197C82.0464 15.2152 81.5905 15.1129 81.0621 15.1129H78.1409V19.3061ZM78.1409 13.5724H80.7872C81.2304 13.5724 81.6288 13.4872 81.9825 13.3168C82.3405 13.1463 82.6238 12.9077 82.8327 12.6009C83.0457 12.2898 83.1523 11.9233 83.1523 11.5014C83.1523 10.9602 82.9626 10.5064 82.5834 10.1399C82.2041 9.77344 81.6224 9.5902 80.8383 9.5902H78.1409V13.5724Z" fill="#014B44"/>
</svg>
