<svg width="28" height="28" viewBox="0 0 28 28" fill="none" xmlns="http://www.w3.org/2000/svg">
<path d="M25.1299 17.5H19.8333C19.2144 17.5 18.6209 17.7458 18.1833 18.1834C17.7458 18.621 17.4999 19.2145 17.4999 19.8333V25.13M8.16659 3.89668V5.83334C8.16659 6.7616 8.53533 7.65184 9.19171 8.30822C9.84809 8.96459 10.7383 9.33334 11.6666 9.33334C12.2854 9.33334 12.8789 9.57918 13.3165 10.0168C13.7541 10.4543 13.9999 11.0478 13.9999 11.6667C13.9999 12.95 15.0499 14 16.3333 14C16.9521 14 17.5456 13.7542 17.9832 13.3166C18.4208 12.879 18.6666 12.2855 18.6666 11.6667C18.6666 10.3833 19.7166 9.33334 20.9999 9.33334H24.6983M12.8333 25.6083V21C12.8333 20.3812 12.5874 19.7877 12.1498 19.3501C11.7122 18.9125 11.1188 18.6667 10.4999 18.6667C9.88108 18.6667 9.28759 18.4208 8.85 17.9833C8.41242 17.5457 8.16659 16.9522 8.16659 16.3333V15.1667C8.16659 14.5478 7.92075 13.9543 7.48317 13.5168C7.04558 13.0792 6.45209 12.8333 5.83325 12.8333H2.39159M25.6666 14C25.6666 20.4433 20.4432 25.6667 13.9999 25.6667C7.5566 25.6667 2.33325 20.4433 2.33325 14C2.33325 7.55669 7.5566 2.33334 13.9999 2.33334C20.4432 2.33334 25.6666 7.55669 25.6666 14Z" stroke="#014B44" stroke-width="2" stroke-linecap="round" stroke-linejoin="round"/>
</svg>
