<svg width="18" height="18" viewBox="0 0 18 18" fill="none" xmlns="http://www.w3.org/2000/svg">
<path d="M8.26259 2.11046C8.29473 1.93842 8.38602 1.78303 8.52067 1.6712C8.65531 1.55938 8.82482 1.49817 8.99984 1.49817C9.17487 1.49817 9.34438 1.55938 9.47902 1.6712C9.61366 1.78303 9.70496 1.93842 9.73709 2.11046L10.5253 6.27896C10.5813 6.57533 10.7253 6.84793 10.9386 7.06119C11.1519 7.27446 11.4245 7.41848 11.7208 7.47446L15.8893 8.26272C16.0614 8.29485 16.2168 8.38615 16.3286 8.52079C16.4404 8.65543 16.5016 8.82494 16.5016 8.99996C16.5016 9.17499 16.4404 9.3445 16.3286 9.47914C16.2168 9.61378 16.0614 9.70508 15.8893 9.73721L11.7208 10.5255C11.4245 10.5814 11.1519 10.7255 10.9386 10.9387C10.7253 11.152 10.5813 11.4246 10.5253 11.721L9.73709 15.8895C9.70496 16.0615 9.61366 16.2169 9.47902 16.3287C9.34438 16.4405 9.17487 16.5018 8.99984 16.5018C8.82482 16.5018 8.65531 16.4405 8.52067 16.3287C8.38602 16.2169 8.29473 16.0615 8.26259 15.8895L7.47434 11.721C7.41836 11.4246 7.27434 11.152 7.06107 10.9387C6.84781 10.7255 6.5752 10.5814 6.27884 10.5255L2.11034 9.73721C1.9383 9.70508 1.7829 9.61378 1.67108 9.47914C1.55926 9.3445 1.49805 9.17499 1.49805 8.99996C1.49805 8.82494 1.55926 8.65543 1.67108 8.52079C1.7829 8.38615 1.9383 8.29485 2.11034 8.26272L6.27884 7.47446C6.5752 7.41848 6.84781 7.27446 7.06107 7.06119C7.27434 6.84793 7.41836 6.57533 7.47434 6.27896L8.26259 2.11046Z" stroke="#014B44" stroke-width="1.5" stroke-linecap="round" stroke-linejoin="round"/>
<path d="M15 1.5V4.5" stroke="#014B44" stroke-width="1.5" stroke-linecap="round" stroke-linejoin="round"/>
<path d="M16.5 3H13.5" stroke="#014B44" stroke-width="1.5" stroke-linecap="round" stroke-linejoin="round"/>
<path d="M3 16.5C3.82843 16.5 4.5 15.8284 4.5 15C4.5 14.1716 3.82843 13.5 3 13.5C2.17157 13.5 1.5 14.1716 1.5 15C1.5 15.8284 2.17157 16.5 3 16.5Z" stroke="#014B44" stroke-width="1.5" stroke-linecap="round" stroke-linejoin="round"/>
</svg>
